HIERARCHY
ROOT Hips
{
  OFFSET 0.000000 0.000000 0.000000
  CHANNELS 6 Xposition Yposition Zposition Xrotation Yrotation Zrotation
  JOINT Spine
  {
    OFFSET 0.881470 21.810334 -9.076147
    CHANNELS 3 Xrotation Yrotation Zrotation
    JOINT Chest
    {
      OFFSET 0.881470 21.810334 -9.076147
      CHANNELS 3 Xrotation Yrotation Zrotation
      JOINT Neck
      {
        OFFSET 0.104826 4.674388 -8.995672
        CHANNELS 3 Xrotation Yrotation Zrotation
        JOINT Head
        {
          OFFSET 0.551680 4.678088 -12.550828
          CHANNELS 3 Xrotation Yrotation Zrotation
          End Site
          {
            OFFSET 0.165504 1.403426 -3.765248
          }
        }
      }
      JOINT LeftCollar
      {
        OFFSET 3.000000 4.000000 0.000000
        CHANNELS 3 Xrotation Yrotation Zrotation
        JOINT LeftShoulder
        {
          OFFSET 15.792676 -2.209392 -1.224738
          CHANNELS 3 Xrotation Yrotation Zrotation
          JOINT LeftArm
          {
            OFFSET 3.082085 -20.340128 -8.765461
            CHANNELS 3 Xrotation Yrotation Zrotation
            JOINT LeftForeArm
            {
              OFFSET -6.633304 3.932203 -15.582597
              CHANNELS 3 Xrotation Yrotation Zrotation
              JOINT LeftHand
              {
                OFFSET -2.474855 3.119097 -1.955211
                CHANNELS 3 Xrotation Yrotation Zrotation
                End Site
                {
                  OFFSET -0.742457 0.935729 -0.586563
                }
              }
            }
          }
        }
      }
      JOINT RightCollar
      {
        OFFSET -3.000000 4.000000 0.000000
        CHANNELS 3 Xrotation Yrotation Zrotation
        JOINT RightShoulder
        {
          OFFSET -15.792676 2.209392 1.224738
          CHANNELS 3 Xrotation Yrotation Zrotation
          JOINT RightArm
          {
            OFFSET -2.495612 -27.698627 -14.139695
            CHANNELS 3 Xrotation Yrotation Zrotation
            JOINT RightForeArm
            {
              OFFSET 9.302673 7.642058 -20.278665
              CHANNELS 3 Xrotation Yrotation Zrotation
              JOINT RightHand
              {
                OFFSET 4.807220 4.843324 -4.521461
                CHANNELS 3 Xrotation Yrotation Zrotation
                End Site
                {
                  OFFSET 1.442166 1.452997 -1.356438
                }
              }
            }
          }
        }
      }
    }
  }
  JOINT LeftUpLeg
  {
    OFFSET 10.328032 0.296165 2.790499
    CHANNELS 3 Xrotation Yrotation Zrotation
    JOINT LeftLeg
    {
      OFFSET 12.238276 -41.735834 -6.323935
      CHANNELS 3 Xrotation Yrotation Zrotation
      JOINT LeftFoot
      {
        OFFSET 10.938167 -37.656560 14.235581
        CHANNELS 3 Xrotation Yrotation Zrotation
        End Site
        {
          OFFSET 3.281450 -11.296968 4.270674
        }
      }
    }
  }
  JOINT RightUpLeg
  {
    OFFSET -10.328032 -0.296165 -2.790499
    CHANNELS 3 Xrotation Yrotation Zrotation
    JOINT RightLeg
    {
      OFFSET -6.716455 -33.878452 3.035436
      CHANNELS 3 Xrotation Yrotation Zrotation
      JOINT RightFoot
      {
        OFFSET -13.584754 -38.742798 13.536227
        CHANNELS 3 Xrotation Yrotation Zrotation
        End Site
        {
          OFFSET -4.075426 -11.622839 4.060868
        }
      }
    }
  }
}
MOTION
Frames: 14
Frame Time: 0.083333
-0.038882 59.950343 0.231176 0.037925 -0.011474 -0.023953 0.000000 0.000000 0.000000 -0.067436 -0.014566 0.010252 -0.063813 -0.015489 -0.005310 -0.630111 7.578094 -18.979885 0.023339 -0.020556 0.017560 0.000000 0.000000 0.000000 1.102685 0.125920 -0.270648 0.000000 0.000000 0.000000 0.000000 0.000000 0.000000 0.023339 -0.020556 0.017560 0.198285 0.001690 0.022297 0.340235 0.092998 0.041653 0.000000 0.000000 0.000000 0.000000 0.000000 0.000000 6.762411 2.204738 -0.763113 -8.756686 -2.346278 1.696396 0.000000 0.000000 0.000000 11.061639 -2.179166 0.373934 -26.725378 6.927036 -1.147796 0.000000 0.000000 0.000000
-0.141101 59.955488 0.533908 0.041174 -0.012459 -0.026035 0.000000 0.000000 0.000000 -0.073470 -0.014836 0.011712 -0.066181 -0.015161 -0.005181 -27.375002 7.608621 -18.965864 0.024900 -0.026450 0.014603 0.300469 -0.044383 0.348988 1.142385 0.115018 -0.272304 0.000000 0.000000 0.000000 0.000000 0.000000 0.000000 0.024900 -0.026450 0.014603 0.226482 0.007027 0.033321 0.505938 0.094503 0.050281 0.000000 0.000000 0.000000 0.000000 0.000000 0.000000 6.790556 2.215925 -0.738280 -8.761535 -2.350299 1.662770 0.000000 0.000000 0.000000 11.059689 -2.175738 0.369855 -26.731908 6.938363 -1.116024 0.000000 0.000000 0.000000
-0.387559 60.055103 1.109641 0.041325 -0.012493 -0.026106 0.000000 0.000000 0.000000 -0.073798 -0.014846 0.011761 -0.066288 -0.015154 -0.005181 177.452595 8.151633 -18.486528 0.025016 -0.026747 0.014402 0.787476 0.112350 0.672195 3.330701 0.271418 -0.817231 0.000000 0.000000 0.000000 0.000000 0.000000 0.000000 0.025016 -0.026747 0.014402 0.824800 0.027228 0.287574 2.077414 0.364902 0.074663 0.000000 0.000000 0.000000 0.000000 0.000000 0.000000 2.698872 0.929635 -0.115782 -1.508513 -0.107074 1.312593 0.000000 0.000000 0.000000 10.886827 -2.110500 0.156525 -26.551139 6.857599 -0.674810 0.000000 0.000000 0.000000
-0.664560 60.195254 1.716969 0.141157 -0.046597 -0.098914 0.000000 0.000000 0.000000 -0.266821 -0.044870 0.051442 -0.203855 -0.042855 -0.013928 175.116524 8.689713 -17.259063 0.089025 -0.150400 -0.001650 2.401282 1.049944 1.568965 4.908638 0.203445 -1.353968 0.000000 0.000000 0.000000 0.000000 0.000000 0.000000 0.089025 -0.150400 -0.001650 1.886333 -0.043869 1.393596 4.756566 1.050004 -0.416294 0.000000 0.000000 0.000000 0.000000 0.000000 0.000000 0.256483 0.234100 0.551612 3.077748 1.317492 0.894295 0.000000 0.000000 0.000000 10.594298 -2.002143 -0.031049 -26.516268 6.891838 -0.060617 0.000000 0.000000 0.000000
-0.881496 60.252820 2.340652 0.342760 -0.109764 -0.233185 0.000000 0.000000 0.000000 -0.678930 -0.067303 0.143394 -0.364266 -0.038836 -0.012001 172.637602 9.070390 -15.068564 0.215847 -0.550661 -0.218814 3.458897 1.863272 2.179834 5.179145 -0.087094 -1.795549 0.000000 0.000000 0.000000 0.000000 0.000000 0.000000 0.215847 -0.550661 -0.218814 3.431497 -0.492137 3.953258 6.916373 2.492927 -2.064926 0.000000 0.000000 0.000000 0.000000 0.000000 0.000000 0.001365 0.291080 0.959722 3.787822 1.570763 0.767146 0.000000 0.000000 0.000000 10.161533 -1.890402 -0.096114 -26.534560 6.934078 0.322634 0.000000 0.000000 0.000000
-1.072898 60.232328 2.957937 0.694532 -0.180437 -0.372839 0.000000 0.000000 0.000000 -1.414613 -0.058750 0.255799 -0.521902 0.030437 0.004167 170.154947 9.792925 -13.245505 0.457272 -1.267104 -0.778209 4.454556 2.596777 2.941884 5.789683 -0.374500 -1.991274 0.000000 0.000000 0.000000 0.000000 0.000000 0.000000 0.457272 -1.267104 -0.778209 5.030170 -1.275738 6.768226 7.887194 4.011317 -4.040532 0.000000 0.000000 0.000000 0.000000 0.000000 0.000000 -0.200047 0.294034 1.228785 4.847772 1.903037 0.683658 0.000000 0.000000 0.000000 9.843059 -1.855688 -0.053963 -26.326047 6.882322 0.307391 0.000000 0.000000 0.000000
-1.264450 60.224608 3.399006 0.961029 -0.202473 -0.403137 0.000000 0.000000 0.000000 -2.151698 -0.055958 0.281007 -0.644063 0.024300 -0.015095 168.917560 9.678960 -11.738312 0.813099 -1.816119 -1.467489 5.185259 2.993397 3.402297 6.807401 -0.682534 -2.081884 0.000000 0.000000 0.000000 0.000000 0.000000 0.000000 0.813099 -1.816119 -1.467489 6.296899 -1.741155 8.695839 7.810036 4.932105 -5.184858 0.000000 0.000000 0.000000 0.000000 0.000000 0.000000 -0.164558 0.331889 1.479559 5.849794 2.264947 0.786258 0.000000 0.000000 0.000000 9.607895 -1.840931 0.003053 -26.223684 6.840416 0.180310 0.000000 0.000000 0.000000
-1.392137 60.216730 3.673484 1.154669 -0.211572 -0.408361 0.000000 0.000000 0.000000 -2.778675 -0.049227 0.288706 -0.658405 0.044622 -0.024463 168.184845 8.828667 -10.348774 1.162753 -2.127224 -2.251358 6.278423 3.215406 3.696937 7.624888 -1.030774 -2.015496 0.000000 0.000000 0.000000 0.000000 0.000000 0.000000 1.162753 -2.127224 -2.251358 7.001416 -2.333270 10.270700 7.482560 5.555510 -6.168201 0.000000 0.000000 0.000000 0.000000 0.000000 0.000000 0.646360 0.513569 1.654902 5.807926 2.385349 1.064638 0.000000 0.000000 0.000000 9.655037 -1.845580 -0.014381 -26.100785 6.807489 0.206175 0.000000 0.000000 0.000000
-1.414636 60.247928 4.078727 1.092212 -0.205314 -0.398509 0.000000 0.000000 0.000000 -3.156553 -0.069590 0.273253 -0.617027 0.132079 -0.011403 167.373200 7.701017 -9.565980 1.569656 -2.088123 -2.892955 7.647538 3.492998 3.784118 7.840331 -1.335330 -1.899074 0.000000 0.000000 0.000000 0.000000 0.000000 0.000000 1.569656 -2.088123 -2.892955 7.379392 -2.960497 11.474080 6.992272 6.031151 -7.005176 0.000000 0.000000 0.000000 0.000000 0.000000 0.000000 2.208111 0.783007 1.759819 4.562928 2.156057 1.236202 0.000000 0.000000 0.000000 9.775465 -1.792233 -0.153299 -24.907495 6.505276 0.484431 0.000000 0.000000 0.000000
-1.298585 60.308794 4.852214 0.587736 -0.184440 -0.392176 0.000000 0.000000 0.000000 -3.194792 -0.086169 0.266538 -0.569135 0.294281 0.014629 167.303317 6.975722 -9.678068 2.108544 -1.905416 -3.319075 7.894647 3.326429 3.376938 8.051418 -1.614705 -1.623557 0.000000 0.000000 0.000000 0.000000 0.000000 0.000000 2.108544 -1.905416 -3.319075 7.551677 -3.484254 12.040337 6.548272 6.292488 -7.310087 0.000000 0.000000 0.000000 0.000000 0.000000 0.000000 2.951011 0.704204 2.016221 5.202726 2.249664 0.709670 0.000000 0.000000 0.000000 9.378858 -1.631069 -0.254535 -21.132706 5.444121 0.557282 0.000000 0.000000 0.000000
-1.022028 60.528336 6.190124 -0.127790 -0.145115 -0.360476 0.000000 0.000000 0.000000 -2.878823 -0.101416 0.239129 -0.502114 0.440223 0.035732 167.605817 6.629400 -9.950320 2.532846 -1.563319 -3.558929 7.739934 2.420595 3.299308 8.492537 -1.619721 -1.314197 0.000000 0.000000 0.000000 0.000000 0.000000 0.000000 2.532846 -1.563319 -3.558929 7.313581 -4.162048 12.226722 6.334963 6.291372 -7.376777 0.000000 0.000000 0.000000 0.000000 0.000000 0.000000 3.533561 0.629943 2.204134 6.050262 2.364443 0.060359 0.000000 0.000000 0.000000 9.568501 -1.724798 0.078186 -18.608697 4.276025 -0.954485 0.000000 0.000000 0.000000
-0.652635 60.925620 7.359213 -0.465254 -0.070912 -0.214145 0.000000 0.000000 0.000000 -2.895143 -0.090592 0.118640 -0.436656 0.602578 0.051971 167.865682 6.802750 -10.562121 2.957941 -0.946955 -3.622073 9.482838 1.523826 4.691940 6.468225 -0.410144 -2.466364 0.000000 0.000000 0.000000 0.000000 0.000000 0.000000 2.957941 -0.946955 -3.622073 7.188726 -4.668335 11.647505 5.881635 6.165487 -7.102168 0.000000 0.000000 0.000000 0.000000 0.000000 0.000000 5.069825 0.731717 1.999478 4.820191 1.980276 -0.493232 0.000000 0.000000 0.000000 14.326456 -2.820493 -0.270254 -27.830813 5.617640 -2.362460 0.000000 0.000000 0.000000
-0.367240 61.240723 8.005089 -0.707244 0.110365 0.194919 0.000000 0.000000 0.000000 -2.957503 0.007435 -0.203619 -0.376316 0.673740 0.018517 168.139896 6.369154 -11.160213 3.362220 -0.556295 -3.298110 16.598853 -4.575552 13.614907 -0.502910 4.738065 -7.160955 0.000000 0.000000 0.000000 0.000000 0.000000 0.000000 3.362220 -0.556295 -3.298110 7.110819 -4.533542 9.024467 5.200544 5.583927 -5.903880 0.000000 0.000000 0.000000 0.000000 0.000000 0.000000 7.629826 1.164598 1.338979 0.512684 0.854547 -0.918951 0.000000 0.000000 0.000000 14.154746 -3.197411 -3.642035 -26.829390 5.054437 2.438435 0.000000 0.000000 0.000000
-0.343300 61.335555 8.286762 -0.331873 0.385290 0.896044 0.000000 0.000000 0.000000 -3.633608 0.413454 -0.694179 -0.336312 0.688313 -0.084021 168.491547 3.610945 -12.517967 3.834822 -0.857594 -1.955158 26.140266 -17.270628 21.673850 -13.111435 16.477207 -12.978713 0.000000 0.000000 0.000000 0.000000 0.000000 0.000000 3.834822 -0.857594 -1.955158 7.375177 -4.588942 3.215815 3.213348 4.305151 -3.239081 0.000000 0.000000 0.000000 0.000000 0.000000 0.000000 8.165070 1.443487 0.202644 -2.918279 -0.042302 -0.748092 0.000000 0.000000 0.000000 12.526952 -3.504759 -5.867839 -24.715825 4.215657 4.671066 0.000000 0.000000 0.000000
